<?xml version="1.0" encoding="iso-8859-1"?>
<!-- Uploaded to: SVG Repo, www.svgrepo.com, Generator: SVG Repo Mixer Tools -->
<svg version="1.1" id="Layer_1" xmlns="http://www.w3.org/2000/svg" xmlns:xlink="http://www.w3.org/1999/xlink" 
	 viewBox="0 0 512 512" xml:space="preserve">
<rect x="4" y="109.852" style="fill:#FFFFFF;" width="504" height="358.496"/>
<g>
	<polygon style="fill:#E2E2E2;" points="369.968,431.172 142.032,431.172 104.664,459.588 407.336,459.588 	"/>
	<polygon style="fill:#E2E2E2;" points="113.32,431.172 47.632,431.172 10.256,459.588 76.072,459.588 	"/>
	<polygon style="fill:#E2E2E2;" points="464.368,431.172 398.68,431.172 435.928,459.588 501.744,459.588 	"/>
	<polygon style="fill:#E2E2E2;" points="369.968,147.788 142.032,147.788 104.664,119.372 407.336,119.372 	"/>
	<polygon style="fill:#E2E2E2;" points="113.32,147.788 47.632,147.788 10.256,119.372 76.072,119.372 	"/>
	<polygon style="fill:#E2E2E2;" points="464.368,147.788 398.68,147.788 435.928,119.372 501.744,119.372 	"/>
</g>
<path style="fill:#E5E5E5;" d="M504,113.852v350.496H8V113.852H504 M512,105.852H0v366.496h512V105.852z"/>
<path d="M0,119.372V55.636c0.024-8.824,7.176-15.976,16-16h479.96c8.824,0.024,15.976,7.176,16,16v63.728H0V119.372z"/>
<polygon style="fill:#FFFFFF;" points="471.624,101.508 171.536,101.508 200.24,57.508 471.624,57.508 "/>
<circle style="fill:#E21B1B;" cx="53.904" cy="78.908" r="13.608"/>
<circle style="fill:#939393;" cx="89.976" cy="78.908" r="13.608"/>
<circle style="fill:#E2E2E2;" cx="126.056" cy="78.908" r="13.608"/>
<path d="M215.624,71.244l1.912,8.312c0.416,1.952,0.8,3.944,1.168,5.936h0.08c0.376-1.992,0.976-4,1.504-5.896l2.4-8.352h3.76
	l2.296,8.128c0.56,2.144,1.048,4.136,1.464,6.128h0.08c0.296-1.992,0.712-4,1.2-6.128l2.032-8.128h4.544l-5.752,18.312H228
	l-2.176-7.448c-0.568-1.928-1.032-3.888-1.392-5.864h-0.08c-0.336,1.984-0.8,3.944-1.392,5.864l-2.328,7.448h-4.328l-5.424-18.312
	H215.624z"/>
<path d="M244.392,71.244l1.912,8.312c0.416,1.952,0.8,3.944,1.168,5.936h0.08c0.376-1.992,0.976-4,1.504-5.896l2.4-8.352h3.76
	l2.296,8.128c0.56,2.144,1.048,4.136,1.464,6.128h0.08c0.296-1.992,0.712-4,1.2-6.128l2.032-8.128h4.544l-5.752,18.312h-4.288
	l-2.176-7.448c-0.568-1.928-1.032-3.888-1.392-5.864h-0.08c-0.336,1.984-0.8,3.944-1.392,5.864l-2.328,7.448h-4.328l-5.416-18.312
	H244.392z"/>
<path d="M273.16,71.244l1.912,8.312c0.416,1.952,0.8,3.944,1.168,5.936h0.08c0.376-1.992,0.976-4,1.504-5.896l2.4-8.352h3.76
	l2.296,8.128c0.56,2.144,1.048,4.136,1.464,6.128h0.08c0.296-1.992,0.712-4,1.2-6.128l2.032-8.128h4.544l-5.752,18.312h-4.328
	l-2.176-7.448c-0.568-1.928-1.032-3.888-1.392-5.864h-0.08c-0.336,1.984-0.8,3.944-1.392,5.864l-2.328,7.448h-4.328l-5.416-18.312
	H273.16z"/>
<path d="M296.312,86.996c-0.104-1.544,1.064-2.888,2.608-2.992c0.096-0.008,0.184-0.008,0.28-0.008c1.64,0,2.968,1.328,2.968,2.968
	s-1.328,2.96-2.968,2.968c-1.56,0.04-2.856-1.2-2.888-2.76C296.312,87.116,296.312,87.052,296.312,86.996z"/>
<rect y="459.596" width="512" height="12.768"/>
<polygon points="501.744,459.588 435.928,459.588 407.336,459.588 104.664,459.588 76.072,459.588 10.256,459.588 0,459.588 
	0,472.356 512,472.356 512,459.588 "/>
<polygon points="440.352,92.508 437.496,89.708 447.384,79.548 436.904,69.324 439.696,66.468 453.04,79.468 "/>
<rect x="421.616" y="77.508" width="26.416" height="4"/>
<polygon points="101.192,253.66 87.136,212.06 50.736,212.06 50.736,200.948 95.112,200.948 111.72,250.1 "/>
<circle cx="181.848" cy="357.86" r="21.408"/>
<circle cx="117.28" cy="357.86" r="21.408"/>
<g>
	<polygon style="fill:#E21B1B;" points="74.232,244.324 228.592,244.324 199.168,326.876 99.936,326.876 	"/>
	<rect x="277.456" y="221.476" style="fill:#E21B1B;" width="170.368" height="8"/>
</g>
<g>
	<rect x="277.456" y="255.732" style="fill:#999999;" width="170.368" height="8"/>
	<rect x="277.456" y="289.996" style="fill:#999999;" width="127.856" height="8"/>
	<rect x="277.448" y="328.156" style="fill:#999999;" width="26.584" height="26.584"/>
	<rect x="325.48" y="328.156" style="fill:#999999;" width="26.584" height="26.584"/>
	<rect x="373.504" y="328.156" style="fill:#999999;" width="26.584" height="26.584"/>
	<rect x="421.528" y="328.156" style="fill:#999999;" width="26.584" height="26.584"/>
</g>
</svg>